{
    "asset" : {
        "generator" : "Khronos glTF Blender I/O v1.6.16",
        "version" : "2.0"
    },
    "scene" : 0,
    "scenes" : [
        {
            "name" : "Scene",
            "nodes" : [
                15,
                16,
                17,
                18
            ]
        }
    ],
    "nodes" : [
        {
            "mesh" : 0,
            "name" : "Model001_7_body_0_1_0_0__kianaModel001_Material001_0"
        },
        {
            "children" : [
                0
            ],
            "name" : "body",
            "rotation" : [
                -0.7071068286895752,
                0,
                0,
                0.7071068286895752
            ],
            "scale" : [
                55.87769317626953,
                55.87769317626953,
                55.87769317626953
            ],
            "translation" : [
                -30.077796936035156,
                0.47738170623779297,
                -16.31337547302246
            ]
        },
        {
            "mesh" : 1,
            "name" : "Model001_7_eyes_0_1_0_0__kianaModel001_Material002_0"
        },
        {
            "children" : [
                2
            ],
            "name" : "eyes",
            "rotation" : [
                -0.7071068286895752,
                0,
                0,
                0.7071068286895752
            ],
            "scale" : [
                55.87769317626953,
                55.87769317626953,
                55.87769317626953
            ],
            "translation" : [
                -30.077796936035156,
                0.47738170623779297,
                -16.31337547302246
            ]
        },
        {
            "mesh" : 2,
            "name" : "Model001_7_face_0_1_0_0__kianaModel001_Material003_0"
        },
        {
            "children" : [
                4
            ],
            "name" : "face",
            "rotation" : [
                -0.7071068286895752,
                0,
                0,
                0.7071068286895752
            ],
            "scale" : [
                55.87769317626953,
                55.87769317626953,
                55.87769317626953
            ],
            "translation" : [
                -30.077796936035156,
                0.47738170623779297,
                -16.31337547302246
            ]
        },
        {
            "mesh" : 3,
            "name" : "Model001_7_hair_0_1_0_0__kianaModel001_Material004_0"
        },
        {
            "children" : [
                6
            ],
            "name" : "hair",
            "rotation" : [
                -0.7071068286895752,
                0,
                0,
                0.7071068286895752
            ],
            "scale" : [
                55.87769317626953,
                55.87769317626953,
                55.87769317626953
            ],
            "translation" : [
                -30.077796936035156,
                0.47738170623779297,
                -16.31337547302246
            ]
        },
        {
            "mesh" : 4,
            "name" : "Model001_7_mouth_0_1_0_0__kianaModel001_Material005_0"
        },
        {
            "children" : [
                8
            ],
            "name" : "mouth",
            "rotation" : [
                -0.7071068286895752,
                0,
                0,
                0.7071068286895752
            ],
            "scale" : [
                55.87769317626953,
                55.87769317626953,
                55.87769317626953
            ],
            "translation" : [
                -30.077796936035156,
                0.47738170623779297,
                -16.31337547302246
            ]
        },
        {
            "name" : "Object001",
            "rotation" : [
                -0.7071068286895752,
                0,
                0,
                0.7071068286895752
            ]
        },
        {
            "name" : "Text001",
            "translation" : [
                0.4329490661621094,
                104.3073501586914,
                4.559418812277727e-06
            ]
        },
        {
            "children" : [
                1,
                3,
                5,
                7,
                9,
                10,
                11
            ],
            "name" : "RootNode"
        },
        {
            "children" : [
                12
            ],
            "name" : "b57b3b1b9a8e47b7a1738091b638032d.fbx",
            "rotation" : [
                0.7071068286895752,
                0,
                0,
                0.7071068286895752
            ]
        },
        {
            "children" : [
                13
            ],
            "name" : "RootNode (model correction matrix)"
        },
        {
            "children" : [
                14
            ],
            "name" : "RootNode (gltf orientation matrix)",
            "rotation" : [
                -0.7071068286895752,
                0,
                0,
                0.7071068286895752
            ],
            "translation" : [
                29.19564437866211,
                -9.821736335754395,
                7.075151443481445
            ]
        },
        {
            "mesh" : 5,
            "name" : "Cube",
            "translation" : [
                29.19564437866211,
                -9.821736335754395,
                7.075151443481445
            ]
        },
        {
            "name" : "Light",
            "rotation" : [
                0.16907575726509094,
                0.7558803558349609,
                -0.27217137813568115,
                0.570947527885437
            ],
            "translation" : [
                34.990234375,
                -3.934475898742676,
                5.876206398010254
            ]
        },
        {
            "name" : "Camera",
            "rotation" : [
                0.483536034822464,
                0.33687159419059753,
                -0.20870360732078552,
                0.7804827094078064
            ],
            "translation" : [
                38.27288055419922,
                -4.88002872467041,
                13.807451248168945
            ]
        }
    ],
    "materials" : [
        {
            "doubleSided" : true,
            "name" : "kianaModel001_Material001",
            "pbrMetallicRoughness" : {
                "baseColorTexture" : {
                    "index" : 0
                },
                "metallicFactor" : 0,
                "roughnessFactor" : 0.848638653755188
            }
        },
        {
            "alphaMode" : "BLEND",
            "doubleSided" : true,
            "name" : "kianaModel001_Material002",
            "pbrMetallicRoughness" : {
                "baseColorTexture" : {
                    "index" : 1
                },
                "metallicFactor" : 0,
                "roughnessFactor" : 0.848638653755188
            }
        },
        {
            "doubleSided" : true,
            "name" : "kianaModel001_Material003",
            "pbrMetallicRoughness" : {
                "baseColorTexture" : {
                    "index" : 2
                },
                "metallicFactor" : 0,
                "roughnessFactor" : 0.848638653755188
            }
        },
        {
            "doubleSided" : true,
            "name" : "kianaModel001_Material004",
            "pbrMetallicRoughness" : {
                "baseColorTexture" : {
                    "index" : 3
                },
                "metallicFactor" : 0,
                "roughnessFactor" : 0.848638653755188
            }
        },
        {
            "alphaMode" : "BLEND",
            "doubleSided" : true,
            "name" : "kianaModel001_Material005",
            "pbrMetallicRoughness" : {
                "baseColorTexture" : {
                    "index" : 4
                },
                "metallicFactor" : 0,
                "roughnessFactor" : 0.848638653755188
            }
        },
        {
            "doubleSided" : true,
            "name" : "Material",
            "pbrMetallicRoughness" : {
                "baseColorFactor" : [
                    0.800000011920929,
                    0.800000011920929,
                    0.800000011920929,
                    1
                ],
                "metallicFactor" : 0,
                "roughnessFactor" : 0.4000000059604645
            }
        }
    ],
    "meshes" : [
        {
            "name" : "Model001_7_body_0_1_0_0__kianaModel001_Material001_0",
            "primitives" : [
                {
                    "attributes" : {
                        "POSITION" : 0,
                        "NORMAL" : 1,
                        "TEXCOORD_0" : 2
                    },
                    "indices" : 3,
                    "material" : 0
                }
            ]
        },
        {
            "name" : "Model001_7_eyes_0_1_0_0__kianaModel001_Material002_0",
            "primitives" : [
                {
                    "attributes" : {
                        "POSITION" : 4,
                        "NORMAL" : 5,
                        "TEXCOORD_0" : 6
                    },
                    "indices" : 7,
                    "material" : 1
                }
            ]
        },
        {
            "name" : "Model001_7_face_0_1_0_0__kianaModel001_Material003_0",
            "primitives" : [
                {
                    "attributes" : {
                        "POSITION" : 8,
                        "NORMAL" : 9,
                        "TEXCOORD_0" : 10
                    },
                    "indices" : 11,
                    "material" : 2
                }
            ]
        },
        {
            "name" : "Model001_7_hair_0_1_0_0__kianaModel001_Material004_0",
            "primitives" : [
                {
                    "attributes" : {
                        "POSITION" : 12,
                        "NORMAL" : 13,
                        "TEXCOORD_0" : 14
                    },
                    "indices" : 15,
                    "material" : 3
                }
            ]
        },
        {
            "name" : "Model001_7_mouth_0_1_0_0__kianaModel001_Material005_0",
            "primitives" : [
                {
                    "attributes" : {
                        "POSITION" : 16,
                        "NORMAL" : 17,
                        "TEXCOORD_0" : 18
                    },
                    "indices" : 19,
                    "material" : 4
                }
            ]
        },
        {
            "name" : "Cube",
            "primitives" : [
                {
                    "attributes" : {
                        "POSITION" : 20,
                        "NORMAL" : 21,
                        "TEXCOORD_0" : 22
                    },
                    "indices" : 23,
                    "material" : 5
                }
            ]
        }
    ],
    "textures" : [
        {
            "sampler" : 0,
            "source" : 0
        },
        {
            "sampler" : 0,
            "source" : 1
        },
        {
            "sampler" : 0,
            "source" : 2
        },
        {
            "sampler" : 0,
            "source" : 3
        },
        {
            "sampler" : 0,
            "source" : 4
        }
    ],
    "images" : [
        {
            "bufferView" : 4,
            "mimeType" : "image/png",
            "name" : "kianaModel001_Material001_baseColor"
        },
        {
            "bufferView" : 9,
            "mimeType" : "image/png",
            "name" : "kianaModel001_Material002_baseColor"
        },
        {
            "bufferView" : 14,
            "mimeType" : "image/png",
            "name" : "kianaModel001_Material003_baseColor"
        },
        {
            "bufferView" : 19,
            "mimeType" : "image/png",
            "name" : "kianaModel001_Material004_baseColor"
        },
        {
            "bufferView" : 24,
            "mimeType" : "image/png",
            "name" : "kianaModel001_Material005_baseColor"
        }
    ],
    "accessors" : [
        {
            "bufferView" : 0,
            "componentType" : 5126,
            "count" : 6761,
            "max" : [
                0.3259511888027191,
                0.27437838912010193,
                1.5118069648742676
            ],
            "min" : [
                -0.27249428629875183,
                -0.27704519033432007,
                -0.004789100959897041
            ],
            "type" : "VEC3"
        },
        {
            "bufferView" : 1,
            "componentType" : 5126,
            "count" : 6761,
            "type" : "VEC3"
        },
        {
            "bufferView" : 2,
            "componentType" : 5126,
            "count" : 6761,
            "type" : "VEC2"
        },
        {
            "bufferView" : 3,
            "componentType" : 5123,
            "count" : 26100,
            "type" : "SCALAR"
        },
        {
            "bufferView" : 5,
            "componentType" : 5126,
            "count" : 84,
            "max" : [
                0.022834649309515953,
                -0.16286520659923553,
                1.5640569925308228
            ],
            "min" : [
                -0.13577359914779663,
                -0.24036189913749695,
                1.4711860418319702
            ],
            "type" : "VEC3"
        },
        {
            "bufferView" : 6,
            "componentType" : 5126,
            "count" : 84,
            "type" : "VEC3"
        },
        {
            "bufferView" : 7,
            "componentType" : 5126,
            "count" : 84,
            "type" : "VEC2"
        },
        {
            "bufferView" : 8,
            "componentType" : 5123,
            "count" : 366,
            "type" : "SCALAR"
        },
        {
            "bufferView" : 10,
            "componentType" : 5126,
            "count" : 385,
            "max" : [
                0.050536591559648514,
                -0.10744030028581619,
                1.604354977607727
            ],
            "min" : [
                -0.1422061026096344,
                -0.24372529983520508,
                1.4136780500411987
            ],
            "type" : "VEC3"
        },
        {
            "bufferView" : 11,
            "componentType" : 5126,
            "count" : 385,
            "type" : "VEC3"
        },
        {
            "bufferView" : 12,
            "componentType" : 5126,
            "count" : 385,
            "type" : "VEC2"
        },
        {
            "bufferView" : 13,
            "componentType" : 5123,
            "count" : 1968,
            "type" : "SCALAR"
        },
        {
            "bufferView" : 15,
            "componentType" : 5126,
            "count" : 2201,
            "max" : [
                0.39103150367736816,
                0.10050880163908005,
                1.7729460000991821
            ],
            "min" : [
                -0.3396363854408264,
                -0.2657735049724579,
                1.0472259521484375
            ],
            "type" : "VEC3"
        },
        {
            "bufferView" : 16,
            "componentType" : 5126,
            "count" : 2201,
            "type" : "VEC3"
        },
        {
            "bufferView" : 17,
            "componentType" : 5126,
            "count" : 2201,
            "type" : "VEC2"
        },
        {
            "bufferView" : 18,
            "componentType" : 5123,
            "count" : 9762,
            "type" : "SCALAR"
        },
        {
            "bufferView" : 20,
            "componentType" : 5126,
            "count" : 53,
            "max" : [
                -0.00017933359777089208,
                -0.1798039972782135,
                1.4591230154037476
            ],
            "min" : [
                -0.08599782735109329,
                -0.22345849871635437,
                1.4152050018310547
            ],
            "type" : "VEC3"
        },
        {
            "bufferView" : 21,
            "componentType" : 5126,
            "count" : 53,
            "type" : "VEC3"
        },
        {
            "bufferView" : 22,
            "componentType" : 5126,
            "count" : 53,
            "type" : "VEC2"
        },
        {
            "bufferView" : 23,
            "componentType" : 5123,
            "count" : 246,
            "type" : "SCALAR"
        },
        {
            "bufferView" : 25,
            "componentType" : 5126,
            "count" : 24,
            "max" : [
                1,
                1,
                1
            ],
            "min" : [
                -1,
                -1,
                -1
            ],
            "type" : "VEC3"
        },
        {
            "bufferView" : 26,
            "componentType" : 5126,
            "count" : 24,
            "type" : "VEC3"
        },
        {
            "bufferView" : 27,
            "componentType" : 5126,
            "count" : 24,
            "type" : "VEC2"
        },
        {
            "bufferView" : 28,
            "componentType" : 5123,
            "count" : 36,
            "type" : "SCALAR"
        }
    ],
    "bufferViews" : [
        {
            "buffer" : 0,
            "byteLength" : 81132,
            "byteOffset" : 0
        },
        {
            "buffer" : 0,
            "byteLength" : 81132,
            "byteOffset" : 81132
        },
        {
            "buffer" : 0,
            "byteLength" : 54088,
            "byteOffset" : 162264
        },
        {
            "buffer" : 0,
            "byteLength" : 52200,
            "byteOffset" : 216352
        },
        {
            "buffer" : 0,
            "byteLength" : 221264,
            "byteOffset" : 268552
        },
        {
            "buffer" : 0,
            "byteLength" : 1008,
            "byteOffset" : 489816
        },
        {
            "buffer" : 0,
            "byteLength" : 1008,
            "byteOffset" : 490824
        },
        {
            "buffer" : 0,
            "byteLength" : 672,
            "byteOffset" : 491832
        },
        {
            "buffer" : 0,
            "byteLength" : 732,
            "byteOffset" : 492504
        },
        {
            "buffer" : 0,
            "byteLength" : 326762,
            "byteOffset" : 493236
        },
        {
            "buffer" : 0,
            "byteLength" : 4620,
            "byteOffset" : 820000
        },
        {
            "buffer" : 0,
            "byteLength" : 4620,
            "byteOffset" : 824620
        },
        {
            "buffer" : 0,
            "byteLength" : 3080,
            "byteOffset" : 829240
        },
        {
            "buffer" : 0,
            "byteLength" : 3936,
            "byteOffset" : 832320
        },
        {
            "buffer" : 0,
            "byteLength" : 5548,
            "byteOffset" : 836256
        },
        {
            "buffer" : 0,
            "byteLength" : 26412,
            "byteOffset" : 841804
        },
        {
            "buffer" : 0,
            "byteLength" : 26412,
            "byteOffset" : 868216
        },
        {
            "buffer" : 0,
            "byteLength" : 17608,
            "byteOffset" : 894628
        },
        {
            "buffer" : 0,
            "byteLength" : 19524,
            "byteOffset" : 912236
        },
        {
            "buffer" : 0,
            "byteLength" : 60251,
            "byteOffset" : 931760
        },
        {
            "buffer" : 0,
            "byteLength" : 636,
            "byteOffset" : 992012
        },
        {
            "buffer" : 0,
            "byteLength" : 636,
            "byteOffset" : 992648
        },
        {
            "buffer" : 0,
            "byteLength" : 424,
            "byteOffset" : 993284
        },
        {
            "buffer" : 0,
            "byteLength" : 492,
            "byteOffset" : 993708
        },
        {
            "buffer" : 0,
            "byteLength" : 49993,
            "byteOffset" : 994200
        },
        {
            "buffer" : 0,
            "byteLength" : 288,
            "byteOffset" : 1044196
        },
        {
            "buffer" : 0,
            "byteLength" : 288,
            "byteOffset" : 1044484
        },
        {
            "buffer" : 0,
            "byteLength" : 192,
            "byteOffset" : 1044772
        },
        {
            "buffer" : 0,
            "byteLength" : 72,
            "byteOffset" : 1044964
        }
    ],
    "samplers" : [
        {
            "magFilter" : 9729,
            "minFilter" : 9987
        }
    ],
    "buffers" : [
        {
            "byteLength" : 1045036,
            "uri" : "data:application/octet-stream;base64,"
        }
    ]
}
